<svg id="Ebene_1" data-name="Ebene 1" xmlns="http://www.w3.org/2000/svg" viewBox="0 0 451.12 166.2"><defs><style>.cls-1{fill:#fff;}</style></defs><title>New York City silhouette</title><path class="cls-1" d="M282.11,466.63h10.11v1.8q0,12,0,24c0,1,.11,1.68,1.45,1.23.26-3.81-.8-7.9,2.18-11.35.76,1.55,1.91,2.89,1.84,4.86-.1,2.88,0,5.77,0,8.76h1.77v-6.25l2.1-.23c.09-2,.18-3.9.27-6H305v-10h2.81l.15,1.69h2.62l.17-2.26h3.39l.25,1.5h7.48l.16-2.07h2.56V483c3.13,1,3.49.67,4.94-4.13.44,1.68.81,3.05,1.17,4.42l.45-.05V471.41l2.13-.21v-5.87h14.05V494.8l.5.16c.18-.32.49-.62.52-.95a19.53,19.53,0,0,0,0-2.65c-.42-7.13,1.48-14,2.48-21,0-.12.13-.22.36-.57.57,3.44,1,6.67,1.64,9.84a60.89,60.89,0,0,1,.91,13.61,3.81,3.81,0,0,0,0,1.17,2.71,2.71,0,0,0,.58.81c.25-.27.71-.53.73-.81.07-1.41,0-2.83,0-4.41l1.72-.07.2,1.65.22-.18a11.62,11.62,0,0,0,1.4,1.56,2.38,2.38,0,0,0,1.25.23c.57,0,1.15,0,1.8,0,.08.72.14,1.29.22,1.94h1.76V484h3.95v-14h10.47c0,.91.08,1.73.13,2.63l1.44.26v5.88l2.48-.54c0-1.22.9-1.23,1.94-1.21,2.15.06,4.3,0,6.63,0,0-1.87-.09-3.57,0-5.26.25-4,.59-8,.91-12.1h5v9l2.84.22v29.67h2.71c0-1.45,0-2.9,0-4.35,0-.38.1-1.06.21-1.07,1.54-.17,1-1.34,1-2.15,0-3.18,0-6.37.05-9.56,0-.44.46-.86.69-1.31s.51-.76.45-1.07c-.71-3.51,1-6,3.4-8.18a4.38,4.38,0,0,0,.46-.66l2.5,2V389.11c2,0,3.76,0,5.56,0,.35,0,.69-.31,1-.47a3.24,3.24,0,0,0-1-.46,26.91,26.91,0,0,1-3.37-.08c-.62-.12-1.13-.81-1.7-1.24.57-.4,1.11-1.06,1.72-1.14a37.63,37.63,0,0,1,4.41-.05c.25-9.24.5-18.34.75-27.44h.24c.21,9.08.42,18.17.63,27.45,1.18,0,2.19,0,3.21,0,.44,0,1-.13,1.3.06a8.08,8.08,0,0,1,1.41,1.28c-.44.37-.84,1-1.33,1.07a18.57,18.57,0,0,1-3.08.07h-1.16l-.28.45c.37.26.72.72,1.1.74,1.51.08,3,0,4.7,0V475.9l4.15-.53v-1.71q0-21.18-.12-42.37a3.05,3.05,0,0,1,1.28-2.72c3-2.36,5.92-4.82,9-7.36,2.73,2.76,5.44,5.45,8.06,8.21a2.91,2.91,0,0,1,.36,1.78q0,25,0,50v1.9a10.86,10.86,0,0,1,1.89-.55c1.1-.13,1.27-.74,1.25-1.71-.06-2.8,0-5.59,0-8.39V423.61h11.49v73a6.34,6.34,0,0,0,1.88,0c.42-.14,1-.63,1-1,.27-4.92.52-9.85.64-14.77.1-3.72,0-7.44,0-11.26h9.15v1.65c0,7.21,0,14.42,0,21.63,0,1.23-.06,2.39,1.07,3.29a5.54,5.54,0,0,1,1,1.68l1.37-.22v3.33c1.48.15,2.84.22,4.18.42A10.81,10.81,0,0,1,489,504.4a4.44,4.44,0,0,0,1.19.8c5.11,2.44,8.82,6.12,10.4,11.7,0,.07.13.12.33.29l1.95-3.65c-2.35.34-2.18-1.14-2.23-2.57l2-.17c.05-.67.1-1.29.16-2l1.43-.28c0-.44.06-.82.08-1.2.24-4,.58-8,.67-12a44,44,0,0,0-.59-5.92c0-.23-.13-.59-.28-.63-1.13-.34-.92-1.33-.7-1.94,1.09-3.06-.09-6.07-.07-9.09-2.37-4,.19-7.71.55-11.56A6.46,6.46,0,0,0,504,464a9,9,0,0,0-1.3-2.88c-.93-1.28-.59-2.22.42-3.16-1.14-2.16-.69-2.62,2.51-6.19a14.21,14.21,0,0,0-.23,2.85,15.21,15.21,0,0,0,.86,2.78l-1.93.63c1.56.33,2.68.78,2,2.53l-1.2.21c.38,3.22.75,6.36,1.13,9.62l1.51.3-.41-1.81c1.82,1.06,1.82,1.06,3.07-.91.11.66.2,1.19.32,1.86l2.07-.92-.92,1.5,2.25.19-1.55,1.18,1.31.65-1.41.35L511,476.69c.51.82,1,2.11,2.83,1.85.31-.05.84.41,1,.77.74,1.26,1.38,2.57,2.11,4l2.27-1.74,2.39,2.95c-1.08,1.3-2.19,2.53-3.17,3.87a3.16,3.16,0,0,0-.58,1.83,29.26,29.26,0,0,0,.51,4.67,3.89,3.89,0,0,1-2,4.49,16.88,16.88,0,0,1-1.88,1.2c-.46.59-.6,1.13.53,1.4,2.7.64,3.46,1.69,3.46,4.47a5.61,5.61,0,0,1,0,.58c-.15,1.31,0,2.31,1.83,1.94.06.65.12,1.22.19,1.9l1.78.13c0,1,.86,2.25-1.31,2.44,4.21,2.48,6.12,6.07,6.06,11H76V494.2H87.38v11.55h3v-22.6h11.68V499.6h2.55V486.4h5v12.32c1.29-1.09.44-2.58,1-3.9h2.56V468.94h17.6v1.68c0,5.74,0,11.47,0,17.21,0,.59-.34,1.35.77,1.6.29.06.32,1.27.49,2.07h1.76V450.21l1.5-.21.13-2.15,1.17-.35a2.51,2.51,0,0,0,.11-.46c0-1.91-.11-3.84,0-5.74.19-2.23.62-4.44.94-6.67.24-1.75.44-3.52.74-5.27.08-.47.48-.88.65-1.35a3.79,3.79,0,0,0,.27-1.36,2.74,2.74,0,0,1,.93-2.62,1,1,0,0,0,.38-.6c.48-2.36.91-4.73,1.39-7.09.14-.67.4-1.32.6-2,.58,2.55,1.18,5.13,1.75,7.71.09.42,0,.88.07,1.31.08.76-.38,1.72.75,2.12.08,0,.11.26.12.4.33,2.62.74,5.24.92,7.87a3,3,0,0,0,1.17,2.52,3,3,0,0,1,1.28,2.9c-.11,2.35-.07,4.71,0,7.06a2.53,2.53,0,0,0,.61,1.67,3.85,3.85,0,0,1,1.07,2.73c1.73,14,.35,28,.81,42a5.17,5.17,0,0,0,.1.55h1.91v-1.51q0-4.71,0-9.42c0-.66-.17-1.36.83-1.61.23-.05.32-.91.35-1.41.11-1.39.77-2.07,2.2-2V472l2.76-.18V458h8.7v16.61h2V458h9.69c0,.54.07,1.05.07,1.57,0,4.41-.06,8.83,0,13.24a46.87,46.87,0,0,0,.71,5.3l2.74.19.32,5.51h2.76l.17,2.41h1.71V445h7v27h5.44V440h5.83v15.42H213l.23,2.31,2.43.14v1.6c0,7.84,0,15.69,0,23.53a3.33,3.33,0,0,0,1.17,2.82c1,.88,1.93,1.87,3.19,3.11V455.55h8.38v30.7h1.88c0-.84,0-1.66,0-2.46s-.05-1.81.91-2.48c.36-.26.38-1.14.38-1.74q0-25.68,0-51.35c0-.75-.38-1.66.71-2.13.18-.07.14-.72.14-1.1,0-2.75,0-5.5,0-8.24,0-.6-.21-1.32.8-1.43.16,0,.35-.62.37-.95.05-.92,0-1.85,0-2.84l1.63-.31.2-1.91,1.41-.33.18-2,1.89-.2c0-.5.08-1,.08-1.54,0-3.53,0-7.06,0-10.59,0-2.63.24-3,2.91-3.88v-5.06h.55c0,1.26,0,2.52,0,3.78a1.78,1.78,0,0,0,1,2,2.89,2.89,0,0,1,1.08,2.16c.12,2.83,0,5.68,0,8.53,0,1.68-.33,3.46,1.3,4.88l.85,0c.05.75.1,1.46.16,2.22l1.51.24.18,1.56,1.38.34v4.21l1.53.22v10.46l1.5.36v64.59l.38.1a2.83,2.83,0,0,0,.39-.9c.28-4.66.61-9.31.75-14,.12-4.36,0-8.73,0-13.09v-1.72h7.95v-5.17h8.19V467h6.52v13.18H281c0-2.28-.06-4.57,0-6.85,0-.91-.65-2.2,1-2.61.13,0,.13-.72.14-1.1C282.12,468.66,282.11,467.73,282.11,466.63Z" transform="translate(-75.97 -358.21)"/></svg>